<svg width="900" height="520" viewBox="0 0 900 520" xmlns="http://www.w3.org/2000/svg" font-family="Helvetica, Arial, sans-serif">
  <defs>
    <marker id="arrow" markerWidth="10" markerHeight="10" refX="8" refY="3" orient="auto" markerUnits="strokeWidth">
      <path d="M0,0 L0,6 L9,3 z" fill="#4A5568" />
    </marker>
  </defs>

  <rect width="900" height="520" fill="#F7F8FC" />

  <!-- Title bar -->
  <rect x="0" y="0" width="900" height="44" fill="#1A3A6B" />
  <rect x="0" y="41" width="900" height="3" fill="#FF9933" />
  <text x="20" y="28" fill="#FFFFFF" font-size="16" font-weight="700">India Option Pricing Engine — System Architecture</text>

  <!-- Client layer -->
  <rect x="40" y="70" width="820" height="90" rx="10" fill="#FFFFFF" stroke="#E2E8F0" stroke-width="1.5"/>
  <text x="60" y="92" fill="#1A3A6B" font-size="13" font-weight="700">CLIENT — React 18 + Vite (localhost:5173)</text>

  <g>
    <rect x="60" y="104" width="170" height="42" rx="7" fill="#FFF3E0" stroke="#FFD9A0"/>
    <text x="145" y="122" fill="#7A4A00" font-size="11" font-weight="700" text-anchor="middle">Option Pricer</text>
    <text x="145" y="136" fill="#7A4A00" font-size="9" text-anchor="middle">BSM · MC · Binomial</text>
  </g>
  <g>
    <rect x="245" y="104" width="170" height="42" rx="7" fill="#FFF3E0" stroke="#FFD9A0"/>
    <text x="330" y="122" fill="#7A4A00" font-size="11" font-weight="700" text-anchor="middle">Greeks Dashboard</text>
    <text x="330" y="136" fill="#7A4A00" font-size="9" text-anchor="middle">Δ Γ Θ V ρ + 2nd order</text>
  </g>
  <g>
    <rect x="430" y="104" width="170" height="42" rx="7" fill="#FFF3E0" stroke="#FFD9A0"/>
    <text x="515" y="122" fill="#7A4A00" font-size="11" font-weight="700" text-anchor="middle">Implied Vol</text>
    <text x="515" y="136" fill="#7A4A00" font-size="9" text-anchor="middle">IV Solver · Vol Smile</text>
  </g>
  <g>
    <rect x="615" y="104" width="225" height="42" rx="7" fill="#FFF3E0" stroke="#FFD9A0"/>
    <text x="727" y="122" fill="#7A4A00" font-size="11" font-weight="700" text-anchor="middle">Market Data</text>
    <text x="727" y="136" fill="#7A4A00" font-size="9" text-anchor="middle">NSE/BSE underlyings · RBI rates</text>
  </g>

  <!-- Arrow client -> api -->
  <line x1="450" y1="160" x2="450" y2="196" stroke="#4A5568" stroke-width="1.5" marker-end="url(#arrow)"/>
  <text x="462" y="182" fill="#4A5568" font-size="10">HTTPS / JSON (REST)</text>

  <!-- API layer -->
  <rect x="40" y="200" width="820" height="90" rx="10" fill="#FFFFFF" stroke="#E2E8F0" stroke-width="1.5"/>
  <text x="60" y="222" fill="#1A3A6B" font-size="13" font-weight="700">API — FastAPI (localhost:8000) · Vite proxy /api → :8000</text>

  <g>
    <rect x="60" y="234" width="195" height="42" rx="7" fill="#E6F1FB" stroke="#B5D4F4"/>
    <text x="157" y="252" fill="#0C447C" font-size="11" font-weight="700" text-anchor="middle">/api/pricing</text>
    <text x="157" y="266" fill="#0C447C" font-size="9" text-anchor="middle">european · american · asian</text>
  </g>
  <g>
    <rect x="268" y="234" width="150" height="42" rx="7" fill="#E6F1FB" stroke="#B5D4F4"/>
    <text x="343" y="252" fill="#0C447C" font-size="11" font-weight="700" text-anchor="middle">/api/greeks</text>
    <text x="343" y="266" fill="#0C447C" font-size="9" text-anchor="middle">1st &amp; 2nd order</text>
  </g>
  <g>
    <rect x="431" y="234" width="150" height="42" rx="7" fill="#E6F1FB" stroke="#B5D4F4"/>
    <text x="506" y="252" fill="#0C447C" font-size="11" font-weight="700" text-anchor="middle">/api/vol</text>
    <text x="506" y="266" fill="#0C447C" font-size="9" text-anchor="middle">IV solver · surface</text>
  </g>
  <g>
    <rect x="594" y="234" width="246" height="42" rx="7" fill="#E6F1FB" stroke="#B5D4F4"/>
    <text x="717" y="252" fill="#0C447C" font-size="11" font-weight="700" text-anchor="middle">/api/market-data</text>
    <text x="717" y="266" fill="#0C447C" font-size="9" text-anchor="middle">underlyings · RBI · NSE info</text>
  </g>

  <!-- Arrow api -> core -->
  <line x1="450" y1="290" x2="450" y2="326" stroke="#4A5568" stroke-width="1.5" marker-end="url(#arrow)"/>
  <text x="465" y="312" fill="#4A5568" font-size="10">Pydantic schemas</text>

  <!-- Core layer -->
  <rect x="40" y="330" width="820" height="90" rx="10" fill="#FFFFFF" stroke="#E2E8F0" stroke-width="1.5"/>
  <text x="60" y="352" fill="#1A3A6B" font-size="13" font-weight="700">CORE — Pricing Engine (NumPy + SciPy)</text>

  <g>
    <rect x="60" y="364" width="195" height="42" rx="7" fill="#EAF3DE" stroke="#C0DD97"/>
    <text x="157" y="382" fill="#27500A" font-size="11" font-weight="700" text-anchor="middle">Black-Scholes-Merton</text>
    <text x="157" y="396" fill="#27500A" font-size="9" text-anchor="middle">closed-form analytical</text>
  </g>
  <g>
    <rect x="268" y="364" width="195" height="42" rx="7" fill="#EAF3DE" stroke="#C0DD97"/>
    <text x="365" y="382" fill="#27500A" font-size="11" font-weight="700" text-anchor="middle">Monte Carlo</text>
    <text x="365" y="396" fill="#27500A" font-size="9" text-anchor="middle">antithetic variates</text>
  </g>
  <g>
    <rect x="476" y="364" width="195" height="42" rx="7" fill="#EAF3DE" stroke="#C0DD97"/>
    <text x="573" y="382" fill="#27500A" font-size="11" font-weight="700" text-anchor="middle">Binomial Tree (CRR)</text>
    <text x="573" y="396" fill="#27500A" font-size="9" text-anchor="middle">American early-exercise</text>
  </g>
  <g>
    <rect x="684" y="364" width="156" height="42" rx="7" fill="#EAF3DE" stroke="#C0DD97"/>
    <text x="762" y="382" fill="#27500A" font-size="11" font-weight="700" text-anchor="middle">Newton-Raphson</text>
    <text x="762" y="396" fill="#27500A" font-size="9" text-anchor="middle">implied vol solver</text>
  </g>

  <!-- Arrow core -> data -->
  <line x1="450" y1="420" x2="450" y2="456" stroke="#4A5568" stroke-width="1.5" marker-end="url(#arrow)"/>
  <text x="475" y="442" fill="#4A5568" font-size="10">reference lookups</text>

  <!-- Data layer -->
  <rect x="40" y="460" width="820" height="46" rx="10" fill="#FFFFFF" stroke="#E2E8F0" stroke-width="1.5"/>
  <text x="60" y="488" fill="#1A3A6B" font-size="12" font-weight="700">DATA — In-memory NSE/BSE reference: 16 underlyings · lot sizes · RBI repo rate · expiry cycles · SEBI margin notes</text>
</svg>
